# xmcd CD database file
#
# Track frame offsets:
#	183
#	17853
#	35920
#
# Disc length: 770 seconds
#
# Revision: 1
# Processed by: cddbd v1.5.1PL0 Copyright (c) Steve Scherf et al.
# Submitted via: CDex 1.51
#
DISCID=22030003
DTITLE=Lucky Peterson - Your Love Is Amazing
DYEAR=1993
DGENRE=Blues
TTITLE0=Your Love Is Amazing
TTITLE1=Compared To What
TTITLE2=Up From The Skies
EXTD=YEAR: 1993
EXTT0=
EXTT1=
EXTT2=
PLAYORDER=
